<svg xmlns="http://www.w3.org/2000/svg" xmlns:xlink="http://www.w3.org/1999/xlink" width="200" height="2214" viewBox="0 0 200 2214"><svg width="34" height="34" viewBox="-5 -5 34 34" id="add" y="0"><path d="M3 12h18m-9 9V3" stroke="#FFF" stroke-width="2" fill="none" stroke-linecap="round"></path></svg><svg width="34" height="34" viewBox="-5 -5 34 34" id="alert-critical" y="34"><g fill="none" fill-rule="evenodd"><path d="M8.323 3L3 8.323v7.354L8.323 21h7.354L21 15.677V8.323L15.677 3H8.323z" stroke="#E24B54" stroke-width="2" vector-effect="non-scaling-stroke"></path><path d="M13 13a.99.99 0 0 1-1 1 .99.99 0 0 1-1-1V7c0-.561.439-1 1-1a.99.99 0 0 1 1 1v6zm-2 2h2v2h-2z" fill="#E24B54"></path></g></svg><svg width="34" height="34" viewBox="-5 -5 34 34" id="alert-critical-block" y="68"><g fill="none" fill-rule="evenodd"><path d="M8.323 3L3 8.323v7.354L8.323 21h7.354L21 15.677V8.323L15.677 3H8.323z" stroke="#FFF" stroke-width="2" vector-effect="non-scaling-stroke"></path><path d="M13 13a.99.99 0 0 1-1 1 .99.99 0 0 1-1-1V7c0-.561.439-1 1-1a.99.99 0 0 1 1 1v6zm-2 2h2v2h-2z" fill="#FFF"></path></g></svg><svg width="34" height="34" viewBox="-5 -5 34 34" id="alert-critical-close" y="102"><path d="M4.874 4.874l14.252 14.252m-14.252 0L19.126 4.874" stroke="#FFF" stroke-width="2" fill="none" stroke-linecap="round" stroke-linejoin="round" vector-effect="non-scaling-stroke"></path></svg><svg width="34" height="34" viewBox="-5 -5 34 34" id="alert-info" y="136"><g fill="none" fill-rule="evenodd"><circle stroke="#D7F7EB" stroke-width="2" cx="12" cy="12" r="9" vector-effect="non-scaling-stroke"></circle><path d="M11 10.097c0-.603.439-1.097.976-1.097h.049c.536 0 .975.494.975 1.097v6.805c0 .604-.439 1.098-.975 1.098h-.05c-.536 0-.975-.494-.975-1.098v-6.805zM11 6h2v2h-2z" fill="#D7F7EB"></path></g></svg><svg width="34" height="34" viewBox="-5 -5 34 34" id="alert-info-block" y="170"><g fill="none" fill-rule="evenodd"><path d="M11 10.097c0-.603.439-1.097.976-1.097h.049c.536 0 .975.494.975 1.097v6.805c0 .604-.439 1.098-.975 1.098h-.05c-.536 0-.975-.494-.975-1.098v-6.805zM11 6h2v2h-2z" fill="#00464F"></path><circle stroke="#00464F" stroke-width="2" cx="12" cy="12" r="9" vector-effect="non-scaling-stroke"></circle></g></svg><svg width="34" height="34" viewBox="-5 -5 34 34" id="alert-info-close" y="204"><path d="M4.874 4.874l14.252 14.252m-14.252 0L19.126 4.874" stroke="#00464F" stroke-width="2" fill="none" stroke-linecap="round" stroke-linejoin="round" vector-effect="non-scaling-stroke"></path></svg><svg width="34" height="34" viewBox="-5 -5 34 34" id="alert-prime-close" y="238"><path d="M4.874 4.874l14.252 14.252m-14.252 0L19.126 4.874" stroke="#FFF" stroke-width="2" fill="none" stroke-linecap="round" stroke-linejoin="round" vector-effect="non-scaling-stroke"></path></svg><svg width="34" height="34" viewBox="-5 -5 34 34" id="alert-prime-success" y="272"><g transform="translate(2 2)" stroke="#FFF" stroke-width="2" fill="none" fill-rule="evenodd"><circle cx="10" cy="10" r="9" vector-effect="non-scaling-stroke"></circle><path stroke-linecap="round" stroke-linejoin="round" d="M5 9.571L8.15 13 14 7"></path></g></svg><svg width="34" height="34" viewBox="-5 -5 34 34" id="alert-success" y="306"><g transform="translate(2 2)" stroke="#E4FDBF" stroke-width="2" fill="none" fill-rule="evenodd"><circle cx="10" cy="10" r="9" vector-effect="non-scaling-stroke"></circle><path stroke-linecap="round" stroke-linejoin="round" d="M5 9.571L8.15 13 14 7"></path></g></svg><svg width="34" height="34" viewBox="-5 -5 34 34" id="alert-success-block" y="340"><g transform="translate(2 2)" stroke="#034C26" stroke-width="2" fill="none" fill-rule="evenodd"><circle cx="10" cy="10" r="9" vector-effect="non-scaling-stroke"></circle><path stroke-linecap="round" stroke-linejoin="round" d="M5 9.571L8.15 13 14 7"></path></g></svg><svg width="34" height="34" viewBox="-5 -5 34 34" id="alert-success-close" y="374"><path d="M4.874 4.874l14.252 14.252m-14.252 0L19.126 4.874" stroke="#034C26" stroke-width="2" fill="none" stroke-linecap="round" stroke-linejoin="round" vector-effect="non-scaling-stroke"></path></svg><svg width="34" height="34" viewBox="-5 -5 34 34" id="alert-warning" y="408"><g fill="none" fill-rule="evenodd"><path d="M13 14.962a.974.974 0 0 1-.976.967h-.049a.974.974 0 0 1-.975-.967V8.967c0-.532.439-.967.975-.967h.05c.536 0 .975.435.975.967v5.995zm-2 2.056h2V19h-2v-1.982z" fill="#FCEBAD"></path><path d="M21.848 19.308L12.932 3.554a1.061 1.061 0 0 0-1.864 0L2.152 19.308c-.427.755.103 1.692.932 1.692h17.832c.829 0 1.359-.937.932-1.692z" stroke="#FCEBAD" stroke-width="2" vector-effect="non-scaling-stroke"></path></g></svg><svg width="34" height="34" viewBox="-5 -5 34 34" id="alert-warning-block" y="442"><g fill="none" fill-rule="evenodd"><path d="M13 14.962a.974.974 0 0 1-.976.967h-.049a.974.974 0 0 1-.975-.967V8.967c0-.532.439-.967.975-.967h.05c.536 0 .975.435.975.967v5.995zm-2 2.056h2V19h-2v-1.982z" fill="#655622"></path><path d="M21.848 19.308L12.932 3.554a1.061 1.061 0 0 0-1.864 0L2.152 19.308c-.427.755.103 1.692.932 1.692h17.832c.829 0 1.359-.937.932-1.692z" stroke="#655622" stroke-width="2" vector-effect="non-scaling-stroke"></path></g></svg><svg width="34" height="34" viewBox="-5 -5 34 34" id="alert-warning-close" y="476"><path d="M4.874 4.874l14.252 14.252m-14.252 0L19.126 4.874" stroke="#655622" stroke-width="2" fill="none" stroke-linecap="round" stroke-linejoin="round" vector-effect="non-scaling-stroke"></path></svg><svg width="200" height="46" viewBox="-5 -5 200 46" id="amazon_rating" y="510"><g fill="none" fill-rule="evenodd"><path d="M104.463 31.688l4.484 2.433-.929-5.016 3.7-3.512-5.058-.667-2.197-4.604-2.197 4.604-5.058.667 3.7 3.512-.929 5.016 4.484-2.433zm0 1.138L98.615 36l1.211-6.543L95 24.875l6.597-.87L104.463 18l2.866 6.006 6.597.87-4.826 4.58L110.312 36l-5.849-3.174z" fill-rule="nonzero" fill="#EBA624"></path><path fill="#FFCA63" fill-rule="nonzero" d="M85.512 32.335l-5.26 2.855 1.089-5.885L77 25.184l5.934-.782L85.512 19z"></path><path d="M85.463 31.688l4.484 2.433-.929-5.016 3.7-3.512-5.058-.667-2.197-4.604-2.197 4.604-5.058.667 3.7 3.512-.929 5.016 4.484-2.433zm0 1.138L79.615 36l1.211-6.543L76 24.875l6.597-.87L85.463 18l2.866 6.006 6.597.87-4.826 4.58L91.312 36l-5.849-3.174zm38-1.138l4.484 2.433-.929-5.016 3.7-3.512-5.058-.667-2.197-4.604-2.197 4.604-5.058.667 3.7 3.512-.929 5.016 4.484-2.433zm0 1.138L117.615 36l1.211-6.543L114 24.875l6.597-.87L123.463 18l2.866 6.006 6.597.87-4.826 4.58L129.312 36l-5.849-3.174zm19-1.138l4.484 2.433-.929-5.016 3.7-3.512-5.058-.667-2.197-4.604-2.197 4.604-5.058.667 3.7 3.512-.929 5.016 4.484-2.433zm0 1.138L136.615 36l1.211-6.543L133 24.875l6.597-.87L142.463 18l2.866 6.006 6.597.87-4.826 4.58L148.312 36l-5.849-3.174zm19-1.138l4.484 2.433-.929-5.016 3.7-3.512-5.058-.667-2.197-4.604-2.197 4.604-5.058.667 3.7 3.512-.929 5.016 4.484-2.433zm0 1.138L155.615 36l1.211-6.543L152 24.875l6.597-.87L161.463 18l2.866 6.006 6.597.87-4.826 4.58L167.312 36l-5.849-3.174zm-57-19.138l4.484 2.433-.929-5.016 3.7-3.512-5.058-.667-2.197-4.604-2.197 4.604-5.058.667 3.7 3.512-.929 5.016 4.484-2.433zm0 1.138L98.615 18l1.211-6.543L95 6.875l6.597-.87L104.463 0l2.866 6.006 6.597.87-4.826 4.58L110.312 18l-5.849-3.174zm19-1.138l4.484 2.433-.929-5.016 3.7-3.512-5.058-.667-2.197-4.604-2.197 4.604-5.058.667 3.7 3.512-.929 5.016 4.484-2.433zm0 1.138L117.615 18l1.211-6.543L114 6.875l6.597-.87L123.463 0l2.866 6.006 6.597.87-4.826 4.58L129.312 18l-5.849-3.174zm19-1.138l4.484 2.433-.929-5.016 3.7-3.512-5.058-.667-2.197-4.604-2.197 4.604-5.058.667 3.7 3.512-.929 5.016 4.484-2.433zm0 1.138L136.615 18l1.211-6.543L133 6.875l6.597-.87L142.463 0l2.866 6.006 6.597.87-4.826 4.58L148.312 18l-5.849-3.174zm19-1.138l4.484 2.433-.929-5.016 3.7-3.512-5.058-.667-2.197-4.604-2.197 4.604-5.058.667 3.7 3.512-.929 5.016 4.484-2.433zm0 1.138L155.615 18l1.211-6.543L152 6.875l6.597-.87L161.463 0l2.866 6.006 6.597.87-4.826 4.58L167.312 18l-5.849-3.174zm19-1.138l4.484 2.433-.929-5.016 3.7-3.512-5.058-.667-2.197-4.604-2.197 4.604-5.058.667 3.7 3.512-.929 5.016 4.484-2.433zm0 1.138L174.615 18l1.211-6.543L171 6.875l6.597-.87L180.463 0l2.866 6.006 6.597.87-4.826 4.58L186.312 18l-5.849-3.174zm-152 18L22.615 36l1.211-6.543L19 24.875l6.597-.87L28.463 18l2.866 6.006 6.597.87-4.826 4.58L34.312 36z" fill-rule="nonzero" fill="#EBA624"></path><path d="M28.463 31.688l4.484 2.433-.929-5.016 3.7-3.512-5.058-.667-2.197-4.604-2.197 4.604-5.058.667 3.7 3.512-.929 5.016z" fill="#FFCA63"></path><path d="M47.463 32.826L41.615 36l1.211-6.543L38 24.875l6.597-.87L47.463 18l2.866 6.006 6.597.87-4.826 4.58L53.312 36z" fill-rule="nonzero" fill="#EBA624"></path><path d="M47.463 31.688l4.484 2.433-.929-5.016 3.7-3.512-5.058-.667-2.197-4.604-2.197 4.604-5.058.667 3.7 3.512-.929 5.016z" fill="#FFCA63"></path><path fill="#EBA624" fill-rule="nonzero" d="M9.463 32.826L3.615 36l1.211-6.543L0 24.875l6.597-.87L9.463 18l2.866 6.006 6.597.87-4.826 4.58L15.312 36z"></path><path fill="#FFCA63" d="M9.463 31.688l4.484 2.433-.929-5.016 3.7-3.512-5.058-.667-2.197-4.604-2.197 4.604-5.058.667 3.7 3.512-.929 5.016z"></path><path d="M66.463 32.826L60.615 36l1.211-6.543L57 24.875l6.597-.87L66.463 18l2.866 6.006 6.597.87-4.826 4.58L72.312 36z" fill-rule="nonzero" fill="#EBA624"></path><path d="M66.463 31.688l4.484 2.433-.929-5.016 3.7-3.512-5.058-.667-2.197-4.604-2.197 4.604-5.058.667 3.7 3.512-.929 5.016z" fill="#FFCA63"></path><path d="M28.463 14.826L22.615 18l1.211-6.543L19 6.875l6.597-.87L28.463 0l2.866 6.006 6.597.87-4.826 4.58L34.312 18z" fill-rule="nonzero" fill="#EBA624"></path><path d="M28.463 13.688l4.484 2.433-.929-5.016 3.7-3.512-5.058-.667-2.197-4.604-2.197 4.604-5.058.667 3.7 3.512-.929 5.016z" fill="#FFCA63"></path><path d="M47.463 14.826L41.615 18l1.211-6.543L38 6.875l6.597-.87L47.463 0l2.866 6.006 6.597.87-4.826 4.58L53.312 18z" fill-rule="nonzero" fill="#EBA624"></path><path d="M47.463 13.688l4.484 2.433-.929-5.016 3.7-3.512-5.058-.667-2.197-4.604-2.197 4.604-5.058.667 3.7 3.512-.929 5.016z" fill="#FFCA63"></path><path d="M9.463 14.826L3.615 18l1.211-6.543L0 6.875l6.597-.87L9.463 0l2.866 6.006 6.597.87-4.826 4.58L15.312 18z" fill-rule="nonzero" fill="#EBA624"></path><path d="M9.463 13.688l4.484 2.433-.929-5.016 3.7-3.512-5.058-.667-2.197-4.604-2.197 4.604-5.058.667 3.7 3.512-.929 5.016z" fill="#FFCA63"></path><path d="M66.463 14.826L60.615 18l1.211-6.543L57 6.875l6.597-.87L66.463 0l2.866 6.006 6.597.87-4.826 4.58L72.312 18z" fill-rule="nonzero" fill="#EBA624"></path><path d="M66.463 13.688l4.484 2.433-.929-5.016 3.7-3.512-5.058-.667-2.197-4.604-2.197 4.604-5.058.667 3.7 3.512-.929 5.016z" fill="#FFCA63"></path><path d="M85.463 14.826L79.615 18l1.211-6.543L76 6.875l6.597-.87L85.463 0l2.866 6.006 6.597.87-4.826 4.58L91.312 18z" fill-rule="nonzero" fill="#EBA624"></path><path d="M85.463 13.688l4.484 2.433-.929-5.016 3.7-3.512-5.058-.667-2.197-4.604-2.197 4.604-5.058.667 3.7 3.512-.929 5.016z" fill="#FFCA63"></path></g></svg><svg width="44" height="30" viewBox="-5 -5 44 30" id="audio-description" y="556"><g fill="none" fill-rule="evenodd"><g transform="translate(0 -8)"><rect stroke="#8197A4" fill-opacity=".3" fill="#111" x=".5" y="8.5" width="33" height="19" rx="2"></rect><g fill="#8197A4"><path d="M21.22 22.792a.69.69 0 0 1-.003-1.007C21.28 21.72 22.5 20.627 22.5 18s-1.232-3.733-1.285-3.785a.694.694 0 0 1 .01-1.008.774.774 0 0 1 1.055.002c.07.067 1.72 1.673 1.72 4.79 0 3.118-1.65 4.725-1.72 4.792a.767.767 0 0 1-.53.21.767.767 0 0 1-.53-.21z"></path><path d="M24.75 23.001a.767.767 0 0 1-.53-.21.69.69 0 0 1-.003-1.006C24.28 21.72 25.5 20.48 25.5 18c0-2.494-1.232-3.733-1.285-3.785a.694.694 0 0 1 .01-1.008.774.774 0 0 1 1.055.002c.07.067 1.72 1.673 1.72 4.79 0 3.118-1.65 4.725-1.72 4.792a.767.767 0 0 1-.53.21"></path><path d="M27.75 23.001a.767.767 0 0 1-.53-.21.69.69 0 0 1-.003-1.006C27.28 21.72 28.5 20.48 28.5 18c0-2.494-1.232-3.733-1.285-3.785a.694.694 0 0 1 .01-1.008.774.774 0 0 1 1.055.002c.07.067 1.72 1.673 1.72 4.79 0 3.118-1.65 4.725-1.72 4.792a.767.767 0 0 1-.53.21"></path></g></g><path d="M11.257 11.414l-1.814-.01 1.814-2.89v2.9zM4.411 14.57s6.063-8.69 6.316-9.079h2.638v9.08h-2.187l-.003-1.167-2.877.005-.833 1.161H4.41zm16.698-5.05c.173 1.988-.785 3.534-2.013 4.329-1.28.828-3.016.745-5.275.703V5.58c-.003-.05.034-.105.034-.105s2.148-.089 3.228 0c2.172.178 3.844 1.944 4.026 4.046zm-5.171 2.675c1.653.113 2.8-.916 2.603-2.499-.148-1.181-1.124-1.917-2.534-1.865-.043.015-.07.046-.07.106v4.258z" fill="#8197A4"></path></g></svg><svg width="34" height="34" viewBox="-5 -5 34 34" id="backstack" y="586"><path stroke="#FFF" stroke-width="2" d="M15 6l-6 6 6 6" fill="none" stroke-linecap="round" stroke-linejoin="round"></path></svg><svg width="14" height="17" viewBox="-5 -5 14 17" id="breadcrumb-chevron" y="620"><g fill="#999" fill-rule="evenodd"><rect transform="rotate(45 2 2.171)" y="1.6" width="4" height="1.143" rx=".571"></rect><rect transform="rotate(-45 2 4.571)" y="4" width="4" height="1.143" rx=".571"></rect></g></svg><svg width="31" height="30" viewBox="-5 -5 31 30" id="chat" y="637"><g fill="#879596"><path d="M11 15H6.6L4 17.6V15H2V9h1V7H0v10h2v3h2.4l3-3H13v-3h-2z"></path><path d="M4 0v13h9.6l3 3H19v-3h2V0H4zm15 11h-2v2.6L14.4 11H6V2h13v9z"></path><path d="M8 4h9v2H8zm0 3h6v2H8z"></path></g></svg><svg width="31" height="31" viewBox="-5 -5 31 31" id="chatflow-close" y="667"><path d="M19.569 1.431l-18.15 18.15m0-18.15l18.15 18.15" stroke-width="2" stroke="#111" fill="none" stroke-linecap="round" stroke-linejoin="round"></path></svg><svg width="30" height="30" viewBox="-5 -5 30 30" id="checkbox" y="698"><path d="M19 1H1v18h18z" stroke-width="2" stroke="#8197A4" fill="none" stroke-linecap="round" stroke-linejoin="round"></path></svg><svg width="30" height="30" viewBox="-5 -5 30 30" id="checkbox-checked" y="728"><g stroke-width="2" fill="none" fill-rule="evenodd" stroke-linecap="round" stroke-linejoin="round"><path stroke="#8197A4" d="M13 1H1v18h18v-9"></path><path stroke="#00A8E1" d="M5 8l4.25 5L19 3"></path></g></svg><svg width="30" height="30" viewBox="-5 -5 30 30" id="checkbox-checked-focus" y="758"><g stroke-width="2" fill="none" fill-rule="evenodd" stroke-linecap="round" stroke-linejoin="round"><path stroke="#EFF1F1" d="M13 1H1v18h18v-9"></path><path stroke="#00A8E1" d="M5 8l4.25 5L19 3"></path></g></svg><svg width="30" height="30" viewBox="-5 -5 30 30" id="checkbox-focus" y="788"><path d="M19 1H1v18h18z" stroke-width="2" stroke="#EFF1F1" fill="none" stroke-linecap="round" stroke-linejoin="round"></path></svg><svg width="31" height="31" viewBox="-5 -5 31 31" id="dismiss-close-dark" y="818"><path d="M18.97 2L2 18.97M2 2l16.97 16.97" stroke="#00464F" stroke-width="2" fill="none" stroke-linecap="square"></path></svg><svg width="31" height="31" viewBox="-5 -5 31 31" id="dismissable-close" y="849"><path d="M18.97 2L2 18.97M2 2l16.97 16.97" stroke="#FFF" stroke-width="2" fill="none" stroke-linecap="square"></path></svg><svg width="34" height="34" viewBox="-5 -5 34 34" id="dropdown" y="880"><path stroke="#FFF" stroke-width="2" d="M6.5 9l5.5 5.5L17.5 9" fill="none" stroke-linecap="round" stroke-linejoin="round"></path></svg><svg width="34" height="34" viewBox="-5 -5 34 34" id="edit" y="914"><g fill="none" fill-rule="evenodd" stroke="#F2F4F6" stroke-width="2"><path stroke-linecap="round" stroke-linejoin="round" d="M17.87 3L3 17v4h4L22 7.09z"></path><path d="M15 7l3 3"></path></g></svg><svg width="34" height="34" viewBox="-5 -5 34 34" id="email" y="948"><g fill="none" fill-rule="evenodd" stroke-linecap="round" stroke="#F2F4F6" stroke-width="2"><path stroke-linejoin="round" d="M1 5h22v14H1z"></path><path d="M1 6l9.377 6.82c.896.652 2.349.652 3.244.002l9.444-6.862"></path></g></svg><svg width="25" height="25" viewBox="-5 -5 25 25" id="entitled-tick" y="982"><path d="M7.5 15a7.5 7.5 0 1 1 0-15 7.5 7.5 0 0 1 0 15zm4.012-10.997h-1.453c-.074 0-.283-.03-.34.101L6.467 9.33 4.999 7.47a.216.216 0 0 0-.18-.097H3.216a.216.216 0 0 0-.171.346l3.376 4.196a.215.215 0 0 0 .171.084h.01a.214.214 0 0 0 .173-.1l4.839-7.487c.195-.268-.024-.41-.102-.41z" fill="#00A8E1" fill-rule="evenodd"></path></svg><svg width="25" height="20" viewBox="-5 -5 25 20" id="expander-down" y="1007"><path stroke="#8197A4" stroke-width="2" d="M2 2l5.5 6L13 2" fill="none" stroke-linecap="round" stroke-linejoin="round"></path></svg><svg width="25" height="20" viewBox="-5 -5 25 20" id="expander-up" y="1027"><path stroke="#8197A4" stroke-width="2" d="M2 8l5.5-6L13 8" fill="none" stroke-linecap="round" stroke-linejoin="round"></path></svg><svg width="34" height="34" viewBox="-5 -5 34 34" id="external" y="1047"><g fill="none" fill-rule="evenodd" stroke-linecap="round" stroke="#F2F4F6" stroke-width="2"><path d="M11.828 12.314l7.779-7.778"></path><path stroke-linejoin="round" d="M14.657 3.828h5.657v5.657M19 14v5H5V5h5"></path></g></svg><svg width="34" height="34" viewBox="-5 -5 34 34" id="facebook" y="1081"><path d="M15.667 23v-8.25h2.55l.409-2.75h-2.96V9.677c0-.917.077-1.344 1.392-1.344h1.359V5.3c0-.038-1.233-.124-2.393-.124C13.605 5.175 12 6.651 12 9.364V12H9.25v2.75H12V23H2.991A1.99 1.99 0 0 1 1 21.009V2.99C1 1.891 1.89 1 2.991 1H21.01C22.109 1 23 1.89 23 2.991V21.01c0 1.1-.89 1.991-1.991 1.991h-5.342z" fill="#F2F4F6" fill-rule="evenodd"></path></svg><svg width="42" height="42" viewBox="-5 -5 42 42" id="grid" y="1115"><g fill="none" fill-rule="evenodd"><rect width="32" height="32" rx="2"></rect><g transform="translate(4 13)" fill="#F2F4F6" stroke="#F2F4F6" stroke-width="2"><rect x="1" y="1" width="5" height="5" rx="1"></rect><rect x="10" y="1" width="5" height="5" rx="1"></rect><rect x="19" y="1" width="5" height="5" rx="1"></rect></g></g></svg><svg width="34" height="34" viewBox="-5 -5 34 34" id="help" y="1157"><g fill="none" fill-rule="evenodd"><path d="M11 18v-2h2v2h-2zm1-12c3.401 0 4 1.757 4 2.925 0 1.47-.627 1.88-1.4 2.38-.774.485-1.438 1.061-1.6 1.954l-.072.741H11v-.846c.108-1.32.681-1.716 1.4-2.186.703-.469 1.6-1.013 1.6-1.83 0-.925-1.046-1.454-2-1.454-1.296 0-1.982 1.03-2 2.105H8C8.054 7.623 9.372 6 12 6z" fill="#F2F4F6"></path><circle stroke="#F2F4F6" stroke-width="2" cx="12" cy="12" r="9"></circle></g></svg><svg width="34" height="34" viewBox="-5 -5 34 34" id="link-arrow" y="1191"><path stroke="#FFF" stroke-width="2" d="M9.5 17.5l5-5-5-5" fill="none" stroke-linecap="round" stroke-linejoin="round"></path></svg><svg width="42" height="42" viewBox="-5 -5 42 42" id="list" y="1225"><g fill="none" fill-rule="evenodd"><rect width="32" height="32" rx="2"></rect><rect fill="#F2F4F6" x="13" y="10" width="13" height="2" rx="1"></rect><rect fill="#F2F4F6" x="13" y="15" width="13" height="2" rx="1"></rect><rect fill="#F2F4F6" x="13" y="20" width="13" height="2" rx="1"></rect><rect fill="#F2F4F6" x="6" y="10" width="5" height="2" rx="1"></rect><rect fill="#F2F4F6" x="6" y="15" width="5" height="2" rx="1"></rect><rect fill="#F2F4F6" x="6" y="20" width="5" height="2" rx="1"></rect></g></svg><svg width="34" height="34" viewBox="-5 -5 34 34" id="lock" y="1267"><g stroke="#D7F7EB" stroke-width="2" fill="none" fill-rule="evenodd" stroke-linejoin="bevel" vector-effect="non-scaling-stroke"><path stroke-linecap="round" d="M5 9h14v12H5z"></path><path d="M16 7a4 4 0 1 0-8 0v2h8V7z"></path></g></svg><svg width="107" height="39" viewBox="-5 -5 107 39" id="logo_amazon" y="1301"><g fill="#FFF" fill-rule="evenodd" shape-rendering="optimizeQuality"><path d="M60.583 22.977C54.943 26.91 46.763 29 39.717 29c-9.872 0-18.762-3.445-25.489-9.18-.528-.45-.057-1.066.578-.717 7.258 3.988 16.233 6.39 25.505 6.39 6.253 0 13.128-1.226 19.453-3.76.954-.382 1.755.594.82 1.244"></path><path d="M63.305 19.678c-.749-.972-4.939-.462-6.823-.232-.569.07-.657-.436-.143-.802 3.343-2.385 8.821-1.696 9.457-.898.641.805-.168 6.382-3.301 9.042-.481.409-.94.191-.727-.35.705-1.787 2.282-5.788 1.537-6.76"></path><path d="M56.57 3.741V1.555a.546.546 0 0 1 .564-.554L67.124 1c.318 0 .576.229.576.552v1.875c-.003.314-.273.724-.753 1.376l-5.173 7.245c1.92-.045 3.952.237 5.695 1.199.395.217.5.538.531.852v2.334c0 .32-.36.693-.735.5-3.074-1.58-7.154-1.753-10.555.018-.346.183-.71-.184-.71-.506v-2.218c0-.354.006-.96.372-1.5l5.994-8.436h-5.22c-.318 0-.575-.223-.576-.55M19.5 17h-2.97a.566.566 0 0 1-.53-.513L16.002.889c0-.311.256-.56.574-.56L19.34.326c.29.016.523.24.54.524v2.036h.057C20.657.917 22.015 0 23.844 0c1.856 0 3.021.918 3.852 2.887C28.416.917 30.053 0 31.798 0c1.247 0 2.605.524 3.437 1.706.942 1.313.749 3.216.749 4.89l-.002 9.843a.568.568 0 0 1-.575.561h-2.965a.564.564 0 0 1-.533-.56V8.17c0-.656.056-2.296-.083-2.92-.222-1.05-.886-1.346-1.746-1.346-.72 0-1.47.493-1.774 1.28-.305.788-.277 2.1-.277 2.986v8.268a.566.566 0 0 1-.573.561H24.49a.563.563 0 0 1-.533-.56l-.004-8.269c0-1.739.278-4.299-1.828-4.299-2.134 0-2.052 2.495-2.052 4.3v8.267A.566.566 0 0 1 19.5 17M75.943 0C80.523 0 83 3.799 83 8.628 83 13.295 80.265 17 75.943 17 71.449 17 69 13.2 69 8.467 69 3.702 71.477 0 75.943 0zm.03 3.27c-2.17 0-2.306 2.92-2.306 4.742 0 1.823-.027 5.719 2.279 5.719 2.278 0 2.387-3.142 2.387-5.058 0-1.257-.054-2.765-.438-3.959-.33-1.036-.99-1.445-1.922-1.445zM88.44 17h-2.913a.562.562 0 0 1-.523-.56L85 .838a.558.558 0 0 1 .56-.509l2.71-.001a.562.562 0 0 1 .52.437V3.15h.055C89.663 1.017 90.808 0 92.827 0c1.31 0 2.59.492 3.41 1.837C97 3.084 97 5.185 97 6.694v9.814a.564.564 0 0 1-.56.492h-2.929a.56.56 0 0 1-.52-.492V8.04c0-1.708.19-4.201-1.827-4.201-.71 0-1.365.492-1.692 1.247-.408.951-.464 1.903-.464 2.954v8.397a.57.57 0 0 1-.569.562m-40.53-7.554c0 1.133.028 2.078-.56 3.085-.477.82-1.234 1.322-2.073 1.322-1.15 0-1.821-.85-1.821-2.109 0-2.477 2.288-2.928 4.454-2.928v.63zm2.673 7.304a.596.596 0 0 1-.691.07c-.973-.82-1.148-1.2-1.679-1.982C46.605 16.5 45.465 17 43.385 17 40.918 17 39 15.453 39 12.363c0-2.414 1.288-4.057 3.123-4.862 1.588-.709 3.809-.837 5.507-1.03v-.386c0-.709.056-1.546-.355-2.157-.357-.547-1.041-.774-1.645-.774-1.117 0-2.11.582-2.354 1.787-.051.267-.243.533-.509.547l-2.838-.312c-.24-.055-.506-.25-.437-.622C40.145 1.056 43.254 0 46.042 0c1.423 0 3.287.385 4.41 1.481 1.425 1.352 1.287 3.155 1.287 5.12v4.633c0 1.395.571 2.006 1.106 2.757.187.27.229.593-.01.79-.598.509-1.66 1.447-2.246 1.976l-.007-.008zM8.909 9.445c0 1.133.029 2.078-.56 3.085-.477.82-1.233 1.322-2.073 1.322-1.148 0-1.821-.85-1.821-2.109 0-2.477 2.288-2.928 4.454-2.928v.63zm2.675 7.304a.6.6 0 0 1-.694.07c-.971-.82-1.146-1.2-1.678-1.982C7.605 16.5 6.466 17 4.385 17 1.917 17 0 15.453 0 12.363 0 9.95 1.287 8.306 3.124 7.501c1.588-.709 3.808-.837 5.505-1.03v-.386c0-.709.056-1.546-.354-2.157-.357-.547-1.041-.774-1.645-.774-1.116 0-2.11.582-2.354 1.787-.051.267-.242.533-.509.547L.93 5.176c-.24-.055-.506-.25-.437-.622C1.144 1.056 4.254 0 7.042 0c1.423 0 3.286.385 4.41 1.481 1.424 1.352 1.287 3.155 1.287 5.12v4.633c0 1.395.57 2.006 1.105 2.757.188.27.23.593-.009.79-.598.509-1.66 1.447-2.247 1.976l-.004-.008z"></path></g></svg><svg width="43" height="23" viewBox="-5 -5 43 23" id="logo_imdb" y="1340"><path d="M0 0h3.388v12.832H0V0zm10.615 0L9.83 5.994l-.486-3.26A92.848 92.848 0 0 0 8.938 0H4.545v12.832h2.968l.01-8.473 1.251 8.473h2.114l1.184-8.661.01 8.66h2.96V0h-4.427zm8.982 2.206v8.421h.533a.535.535 0 0 0 .533-.527V2.732a.536.536 0 0 0-.533-.526h-.533zm.708 10.627c.812 0 1.419-.044 1.822-.131a2.43 2.43 0 0 0 1.017-.46c.274-.218.466-.522.576-.91.11-.387.177-1.156.177-2.307V4.52c0-1.214-.048-2.027-.124-2.442A2.289 2.289 0 0 0 23.208.95c-.3-.339-.74-.58-1.319-.728C21.312.074 20.37 0 18.728 0H16.2v12.832h4.105zm8.589-7.771a.584.584 0 0 0-.587.586v4.833c0 .324.272.587.586.587a.584.584 0 0 0 .587-.587V5.648a.593.593 0 0 0-.587-.586h.001zM25.039 0v12.832h3.05l.212-.818c.276.33.58.576.912.74.333.164.83.246 1.214.246.535 0 .998-.138 1.387-.414.39-.277.637-.604.744-.981.105-.377.158-.95.158-1.72v-3.6c0-.774-.018-1.28-.053-1.517a1.725 1.725 0 0 0-.313-.727 1.667 1.667 0 0 0-.754-.577c-.33-.138-.719-.206-1.168-.206-.39 0-.888.076-1.22.227a2.682 2.682 0 0 0-.904.689V0h-3.265z" class="fill" fill="#CCC" fill-rule="evenodd"></path></svg><svg width="52" height="22" viewBox="-5 -5 52 22" id="logo_prime" y="1363"><g fill="none"><path d="M12.456 4.062c-.427 0-.83.11-1.206.332v3.238c.36.22.763.332 1.206.332.459 0 .798-.156 1.016-.468.217-.312.326-.804.326-1.477 0-.681-.107-1.177-.32-1.49-.214-.311-.554-.467-1.022-.467zM9.453 3.2c0-.115.024-.194.073-.24.05-.045.128-.067.234-.067h.887c.188 0 .303.09.344.27l.086.32c.247-.237.544-.426.893-.566.338-.137.7-.209 1.064-.21.796 0 1.426.292 1.89.875.464.583.695 1.37.695 2.363 0 .68-.115 1.276-.344 1.785-.23.509-.542.9-.936 1.175a2.3 2.3 0 0 1-1.354.413c-.336 0-.656-.054-.96-.16a2.302 2.302 0 0 1-.775-.443v2.695c0 .115-.023.195-.068.24-.045.045-.125.068-.24.068H9.76c-.106 0-.184-.023-.234-.068-.05-.045-.073-.125-.073-.24V3.2zm9.07.628c.328-.36.637-.617.928-.769.293-.152.601-.228.93-.228h.172c.116 0 .197.023.246.068.05.045.075.125.075.24v1.034c0 .106-.023.184-.069.233-.044.05-.125.074-.24.074-.056 0-.13-.004-.22-.012a3.606 3.606 0 0 0-1.034.068c-.237.043-.468.11-.69.203v4.136c0 .106-.022.184-.067.233-.045.05-.127.074-.24.074H17.13c-.107 0-.184-.024-.233-.074-.05-.049-.075-.127-.075-.233V3.2c0-.115.026-.195.075-.24.049-.045.127-.067.233-.067h.886c.19 0 .305.09.346.27l.16.665h.001zm3.22-.628c0-.115.025-.195.074-.24.049-.045.127-.068.234-.068h1.18c.116 0 .196.023.24.068.046.045.069.125.069.24v5.674c0 .107-.023.185-.068.234-.045.05-.125.074-.24.074H22.05c-.107 0-.185-.025-.234-.074-.05-.049-.074-.127-.074-.234V3.2h.001zm.899-1.28c-.312 0-.563-.086-.751-.259-.19-.172-.283-.406-.283-.7 0-.297.094-.53.283-.703.188-.172.439-.258.75-.258.312 0 .563.086.75.258.19.172.284.406.284.702 0 .295-.094.53-.283.701-.188.173-.44.26-.75.26V1.92zM26.7 3.496c.436-.287.828-.49 1.177-.61.346-.118.71-.179 1.076-.178.739 0 1.26.263 1.564.788.418-.28.811-.48 1.18-.603a3.61 3.61 0 0 1 1.146-.185c.573 0 1.02.16 1.335.48.316.32.475.768.475 1.342v4.345c0 .107-.023.185-.069.234-.045.049-.126.074-.24.074h-1.181c-.107 0-.185-.025-.234-.074-.05-.05-.075-.127-.075-.234V4.924c0-.558-.25-.837-.75-.837-.444 0-.89.107-1.341.32v4.468c0 .107-.024.185-.069.234-.044.049-.124.074-.24.074h-1.181c-.107 0-.184-.025-.233-.074-.05-.05-.075-.127-.075-.234V4.924c0-.558-.25-.837-.75-.837-.46 0-.912.11-1.355.332v4.456c0 .107-.023.185-.067.234-.046.049-.125.074-.24.074h-1.181c-.107 0-.186-.025-.235-.074-.049-.05-.073-.127-.073-.234V3.2c0-.115.024-.195.073-.24.05-.045.128-.068.235-.068h.886c.189 0 .303.09.344.27l.099.333-.001.001zm12.014.455c-.788 0-1.243.484-1.366 1.452.328.066.693.1 1.095.1.419 0 .722-.065.91-.192.19-.127.284-.322.284-.585 0-.517-.308-.775-.923-.775zm-.172 2.66c-.468 0-.874-.046-1.22-.137.05.55.216.944.5 1.182.283.238.71.357 1.286.357.23 0 .453-.014.67-.043.33-.05.657-.12.979-.209a.418.418 0 0 1 .062-.007c.139 0 .209.095.209.284v.566c0 .131-.018.223-.055.277a.458.458 0 0 1-.216.141 5.277 5.277 0 0 1-1.908.345c-1.017 0-1.8-.279-2.344-.837-.546-.558-.82-1.358-.82-2.4 0-1.067.28-1.904.838-2.51.558-.608 1.333-.912 2.326-.912.764 0 1.36.184 1.79.554.432.37.647.861.647 1.477 0 .615-.231 1.081-.695 1.397-.464.316-1.147.474-2.05.474l.001.001z" fill="#00A8E1"></path><path d="M8.707 2.886H7.221c-.076 0-.29-.031-.348.104L3.546 8.343 2.044 6.438a.22.22 0 0 0-.184-.1H.22a.221.221 0 0 0-.175.356l3.455 4.3a.22.22 0 0 0 .175.086h.01a.22.22 0 0 0 .177-.103l4.949-7.671c.2-.275-.024-.42-.104-.42" fill="#F7981C"></path></g></svg><svg width="140" height="50" viewBox="-5 -5 140 50" id="logo_primevideo" y="1385"><g fill="none"><path d="M31.46 25.306a.567.567 0 0 1 .573-.494.91.91 0 0 1 .478.154c9.515 5.967 21.287 9.562 33.443 9.562 8.204 0 17.217-1.835 25.511-5.628 1.25-.57 2.298.887 1.075 1.866-7.4 5.883-18.127 9.013-27.364 9.013-12.945 0-24.601-5.159-33.426-13.745a.933.933 0 0 1-.29-.526v-.202z" fill="#00AAE1"></path><path d="M86.436 26.233c2.188-1.652 5.097-2.203 7.51-2.203 2.256 0 4.078.483 4.466 1 .815 1.077-.21 8.548-4.181 12.11-.608.552-1.186.255-.918-.465.893-2.39 2.891-7.755 1.944-9.056-.946-1.304-6.256-.621-8.638-.314-.369.047-.578-.104-.61-.329v-.12c.026-.196.164-.424.427-.623z" fill="#00AAE1"></path><path d="M123.386 18.824c-1.945 0-3.465-.59-4.56-1.768-1.095-1.18-1.643-2.824-1.643-4.935 0-2.095.548-3.731 1.643-4.91 1.095-1.18 2.615-1.77 4.56-1.77 1.945 0 3.465.59 4.56 1.77 1.095 1.179 1.643 2.815 1.643 4.91 0 2.11-.548 3.755-1.643 4.935-1.095 1.179-2.615 1.768-4.56 1.768zm0-2.77c1.716 0 2.575-1.311 2.575-3.933 0-2.606-.859-3.909-2.575-3.909-1.716 0-2.574 1.303-2.574 3.909 0 2.622.858 3.933 2.574 3.933zm-13.521-2.804c-.912 0-1.705-.088-2.377-.266.096 1.083.421 1.86.973 2.328.552.468 1.387.703 2.508.703.447 0 .884-.028 1.308-.085.423-.056 1.011-.182 1.764-.375a.882.882 0 0 1 .263-.049c.273 0 .408.186.408.558v1.117c0 .257-.036.44-.107.546-.073.104-.212.198-.42.278a10.23 10.23 0 0 1-3.722.678c-1.984 0-3.507-.548-4.57-1.65-1.064-1.1-1.596-2.675-1.596-4.73 0-2.102.544-3.751 1.632-4.947 1.088-1.198 2.599-1.797 4.534-1.797 1.489 0 2.653.364 3.493 1.091.84.728 1.26 1.7 1.26 2.912 0 1.214-.453 2.132-1.355 2.753-.904.624-2.237.935-3.996.935zm.335-5.24c-1.537 0-2.424.955-2.663 2.862.639.13 1.35.194 2.136.194.814 0 1.407-.125 1.775-.376.368-.25.552-.634.552-1.15 0-1.021-.6-1.53-1.8-1.53zM94.716 18.725c-1.063 0-1.986-.276-2.77-.828-.785-.553-1.386-1.32-1.803-2.3-.417-.982-.625-2.116-.625-3.402 0-2.045.482-3.682 1.446-4.91.965-1.229 2.24-1.843 3.825-1.843 1.292 0 2.411.37 3.36 1.113V.767c0-.231.048-.392.146-.483.098-.09.254-.136.466-.136h2.354c.229 0 .388.046.478.136.09.091.135.252.135.483v17.068c0 .214-.045.37-.135.47-.09.099-.25.148-.478.148h-1.962c-.196 0-.347-.04-.453-.123-.106-.083-.184-.223-.233-.421l-.147-.569c-1.014.924-2.215 1.385-3.604 1.385zm1.177-2.72c.784 0 1.536-.232 2.255-.693v-6.53c-.703-.413-1.512-.619-2.427-.619-.866 0-1.512.326-1.937.977-.425.652-.637 1.637-.637 2.956 0 1.32.224 2.3.674 2.944.45.643 1.14.964 2.072.964zm-11.695 2.448c-.213 0-.368-.05-.466-.148-.098-.1-.147-.256-.147-.47V6.432c0-.231.049-.392.147-.483.098-.09.253-.136.466-.136h2.354c.229 0 .388.045.478.136.09.09.135.252.135.483v11.403c0 .214-.045.37-.135.47-.09.099-.25.148-.478.148h-2.354zm1.177-14.594c-.621 0-1.12-.173-1.496-.52-.376-.346-.564-.816-.564-1.41 0-.593.188-1.063.564-1.41.376-.346.875-.519 1.496-.519.62 0 1.12.173 1.495.52.376.346.564.816.564 1.41 0 .593-.188 1.063-.564 1.41-.375.346-.874.519-1.495.519zM74.472 18.453c-.164 0-.299-.02-.405-.061a.641.641 0 0 1-.27-.199 1.478 1.478 0 0 1-.208-.383L69.396 6.802a8.82 8.82 0 0 1-.122-.346.876.876 0 0 1-.05-.272c0-.247.164-.371.491-.371h2.452c.261 0 .454.05.576.148.123.1.217.264.282.495l2.525 8.757 2.575-8.757c.065-.23.16-.396.282-.495.122-.099.314-.148.576-.148h2.378c.327 0 .49.124.49.371a.868.868 0 0 1-.049.272c-.032.1-.073.214-.122.346L77.487 17.81a1.478 1.478 0 0 1-.208.383.66.66 0 0 1-.257.199 1.115 1.115 0 0 1-.417.061h-2.133z" fill="#FFF"></path><path d="M58.212 13.29c-.935 0-1.749-.09-2.437-.272.097 1.106.431 1.898.998 2.375.566.478 1.423.718 2.572.718.459 0 .907-.03 1.343-.088.433-.056 1.037-.185 1.809-.381a.912.912 0 0 1 .27-.05c.28 0 .419.19.419.57V17.3c0 .262-.038.448-.11.556-.075.107-.218.203-.432.284-1.2.461-2.47.693-3.817.693-2.036 0-3.598-.56-4.69-1.683-1.091-1.123-1.636-2.73-1.636-4.826 0-2.144.558-3.827 1.674-5.047 1.116-1.222 2.666-1.833 4.652-1.833 1.527 0 2.722.37 3.583 1.113.86.743 1.292 1.733 1.292 2.97 0 1.239-.464 2.175-1.39 2.81-.927.635-2.294.952-4.1.952zm.345-5.346c-1.577 0-2.488.974-2.733 2.92.656.133 1.386.198 2.191.198.837 0 1.444-.127 1.822-.384.378-.254.566-.646.566-1.174 0-1.04-.616-1.56-1.846-1.56zm-24.03-.916c.87-.577 1.654-.986 2.35-1.224a6.593 6.593 0 0 1 2.156-.36c1.478 0 2.52.53 3.127 1.584.836-.56 1.625-.965 2.363-1.211a7.14 7.14 0 0 1 2.289-.374c1.15 0 2.04.324 2.672.966.63.644.948 1.543.948 2.699v8.736c0 .215-.045.371-.134.47-.092.1-.252.147-.482.147h-2.363c-.214 0-.37-.048-.467-.148-.1-.098-.15-.254-.15-.47V9.9c0-1.122-.5-1.683-1.501-1.683-.887 0-1.78.213-2.683.642v8.985c0 .215-.046.371-.135.47-.091.1-.251.147-.481.147h-2.364c-.213 0-.369-.048-.467-.148-.099-.098-.147-.254-.147-.47V9.9c0-1.122-.502-1.683-1.502-1.683-.919 0-1.821.221-2.71.667v8.96c0 .215-.045.371-.134.47-.092.1-.251.147-.48.147h-2.365c-.212 0-.37-.048-.467-.148-.097-.098-.147-.254-.147-.47V6.435c0-.232.05-.392.147-.482.098-.091.255-.135.467-.135h1.774c.378 0 .606.181.689.544l.197.667zm-9.917-.593c0-.232.05-.393.147-.482.1-.092.255-.138.469-.138h2.363c.23 0 .39.046.48.138.09.09.136.25.136.482v11.407c0 .215-.045.373-.137.471-.089.099-.249.149-.479.149h-2.363c-.214 0-.37-.05-.469-.149-.098-.098-.147-.256-.147-.47V6.434zm1.797-2.575c-.625 0-1.125-.172-1.503-.518-.377-.349-.564-.818-.564-1.412 0-.595.187-1.064.564-1.41.378-.346.878-.52 1.503-.52.624 0 1.124.174 1.502.52.377.346.566.815.566 1.41 0 .594-.189 1.063-.566 1.412-.378.346-.878.519-1.502.519zm-8.238 3.836c.655-.725 1.276-1.24 1.859-1.547a3.957 3.957 0 0 1 1.859-.457h.344c.23 0 .394.046.492.136.1.092.147.252.147.482v2.079c0 .215-.043.371-.135.471-.089.098-.249.148-.479.148a4.89 4.89 0 0 1-.444-.025 7.744 7.744 0 0 0-.689-.025c-.378 0-.836.055-1.38.16-.541.11-1 .245-1.377.41v8.314c0 .215-.046.372-.135.472-.091.098-.251.148-.481.148h-2.364c-.213 0-.369-.05-.467-.148-.099-.1-.149-.257-.149-.472V6.435c0-.232.05-.392.15-.484.097-.09.253-.136.466-.136h1.772c.378 0 .608.182.691.545l.32 1.336zM.025 6.434c0-.23.05-.39.15-.482.097-.092.252-.136.466-.136h1.774c.378 0 .606.182.689.545l.172.642A5.47 5.47 0 0 1 5.06 5.864a5.687 5.687 0 0 1 2.131-.419c1.591 0 2.85.586 3.778 1.756.928 1.172 1.393 2.755 1.393 4.753 0 1.368-.23 2.565-.69 3.587-.46 1.024-1.084 1.812-1.87 2.363-.79.555-1.692.83-2.71.83a5.705 5.705 0 0 1-1.92-.321 4.626 4.626 0 0 1-1.552-.89v5.418c0 .231-.045.392-.135.483-.09.09-.25.136-.48.136H.64c-.214 0-.37-.046-.467-.136-.1-.091-.15-.252-.15-.483V6.434zm6.008 1.733c-.852 0-1.657.223-2.413.667v6.509a4.5 4.5 0 0 0 2.413.67c.92 0 1.596-.313 2.032-.94.435-.629.653-1.617.653-2.97 0-1.37-.214-2.368-.641-2.996-.427-.627-1.108-.94-2.044-.94z" fill="#00AAE1"></path></g></svg><svg width="140" height="50" viewBox="-5 -5 140 50" id="logo_primevideo_mono" y="1435"><g fill="#FFF"><path d="M31.46 25.306a.567.567 0 0 1 .573-.494.91.91 0 0 1 .478.154c9.515 5.967 21.287 9.562 33.443 9.562 8.204 0 17.217-1.835 25.511-5.628 1.25-.57 2.298.887 1.075 1.866-7.4 5.883-18.127 9.013-27.364 9.013-12.945 0-24.601-5.159-33.426-13.745a.933.933 0 0 1-.29-.526v-.202z"></path><path d="M86.436 26.233c2.188-1.652 5.097-2.203 7.51-2.203 2.256 0 4.078.483 4.466 1 .815 1.077-.21 8.548-4.181 12.11-.608.552-1.186.255-.918-.465.893-2.39 2.891-7.755 1.944-9.056-.946-1.304-6.256-.621-8.638-.314-.369.047-.578-.104-.61-.329v-.12c.026-.196.164-.424.427-.623zm36.95-7.409c-1.945 0-3.465-.59-4.56-1.768-1.095-1.18-1.643-2.824-1.643-4.935 0-2.095.548-3.731 1.643-4.91 1.095-1.18 2.615-1.77 4.56-1.77 1.945 0 3.465.59 4.56 1.77 1.095 1.179 1.643 2.815 1.643 4.91 0 2.11-.548 3.755-1.643 4.935-1.095 1.179-2.615 1.768-4.56 1.768zm0-2.77c1.716 0 2.575-1.311 2.575-3.933 0-2.606-.859-3.909-2.575-3.909-1.716 0-2.574 1.303-2.574 3.909 0 2.622.858 3.933 2.574 3.933zm-13.521-2.804c-.912 0-1.705-.088-2.377-.266.096 1.083.421 1.86.973 2.328.552.468 1.387.703 2.508.703.447 0 .884-.028 1.308-.085.423-.056 1.011-.182 1.764-.375a.882.882 0 0 1 .263-.049c.273 0 .408.186.408.558v1.117c0 .257-.036.44-.107.546-.073.104-.212.198-.42.278a10.23 10.23 0 0 1-3.722.678c-1.984 0-3.507-.548-4.57-1.65-1.064-1.1-1.596-2.675-1.596-4.73 0-2.102.544-3.751 1.632-4.947 1.088-1.198 2.599-1.797 4.534-1.797 1.489 0 2.653.364 3.493 1.091.84.728 1.26 1.7 1.26 2.912 0 1.214-.453 2.132-1.355 2.753-.904.624-2.237.935-3.996.935zm.335-5.24c-1.537 0-2.424.955-2.663 2.862.639.13 1.35.194 2.136.194.814 0 1.407-.125 1.775-.376.368-.25.552-.634.552-1.15 0-1.021-.6-1.53-1.8-1.53zM94.716 18.725c-1.063 0-1.986-.276-2.77-.828-.785-.553-1.386-1.32-1.803-2.3-.417-.982-.625-2.116-.625-3.402 0-2.045.482-3.682 1.446-4.91.965-1.229 2.24-1.843 3.825-1.843 1.292 0 2.411.37 3.36 1.113V.767c0-.231.048-.392.146-.483.098-.09.254-.136.466-.136h2.354c.229 0 .388.046.478.136.09.091.135.252.135.483v17.068c0 .214-.045.37-.135.47-.09.099-.25.148-.478.148h-1.962c-.196 0-.347-.04-.453-.123-.106-.083-.184-.223-.233-.421l-.147-.569c-1.014.924-2.215 1.385-3.604 1.385zm1.177-2.72c.784 0 1.536-.232 2.255-.693v-6.53c-.703-.413-1.512-.619-2.427-.619-.866 0-1.512.326-1.937.977-.425.652-.637 1.637-.637 2.956 0 1.32.224 2.3.674 2.944.45.643 1.14.964 2.072.964zm-11.695 2.448c-.213 0-.368-.05-.466-.148-.098-.1-.147-.256-.147-.47V6.432c0-.231.049-.392.147-.483.098-.09.253-.136.466-.136h2.354c.229 0 .388.045.478.136.09.09.135.252.135.483v11.403c0 .214-.045.37-.135.47-.09.099-.25.148-.478.148h-2.354zm1.177-14.594c-.621 0-1.12-.173-1.496-.52-.376-.346-.564-.816-.564-1.41 0-.593.188-1.063.564-1.41.376-.346.875-.519 1.496-.519.62 0 1.12.173 1.495.52.376.346.564.816.564 1.41 0 .593-.188 1.063-.564 1.41-.375.346-.874.519-1.495.519zM74.472 18.453c-.164 0-.299-.02-.405-.061a.641.641 0 0 1-.27-.199 1.478 1.478 0 0 1-.208-.383L69.396 6.802a8.82 8.82 0 0 1-.122-.346.876.876 0 0 1-.05-.272c0-.247.164-.371.491-.371h2.452c.261 0 .454.05.576.148.123.1.217.264.282.495l2.525 8.757 2.575-8.757c.065-.23.16-.396.282-.495.122-.099.314-.148.576-.148h2.378c.327 0 .49.124.49.371a.868.868 0 0 1-.049.272c-.032.1-.073.214-.122.346L77.487 17.81a1.478 1.478 0 0 1-.208.383.66.66 0 0 1-.257.199 1.115 1.115 0 0 1-.417.061h-2.133zm-16.26-5.163c-.935 0-1.749-.09-2.437-.272.097 1.106.431 1.898.998 2.375.566.478 1.423.718 2.572.718.459 0 .907-.03 1.343-.088.433-.056 1.037-.185 1.809-.381a.912.912 0 0 1 .27-.05c.28 0 .419.19.419.57V17.3c0 .262-.038.448-.11.556-.075.107-.218.203-.432.284-1.2.461-2.47.693-3.817.693-2.036 0-3.598-.56-4.69-1.683-1.091-1.123-1.636-2.73-1.636-4.826 0-2.144.558-3.827 1.674-5.047 1.116-1.222 2.666-1.833 4.652-1.833 1.527 0 2.722.37 3.583 1.113.86.743 1.292 1.733 1.292 2.97 0 1.239-.464 2.175-1.39 2.81-.927.635-2.294.952-4.1.952zm.345-5.346c-1.577 0-2.488.974-2.733 2.92.656.133 1.386.198 2.191.198.837 0 1.444-.127 1.822-.384.378-.254.566-.646.566-1.174 0-1.04-.616-1.56-1.846-1.56zm-24.03-.916c.87-.577 1.654-.986 2.35-1.224a6.593 6.593 0 0 1 2.156-.36c1.478 0 2.52.53 3.127 1.584.836-.56 1.625-.965 2.363-1.211a7.14 7.14 0 0 1 2.289-.374c1.15 0 2.04.324 2.672.966.63.644.948 1.543.948 2.699v8.736c0 .215-.045.371-.134.47-.092.1-.252.147-.482.147h-2.363c-.214 0-.37-.048-.467-.148-.1-.098-.15-.254-.15-.47V9.9c0-1.122-.5-1.683-1.501-1.683-.887 0-1.78.213-2.683.642v8.985c0 .215-.046.371-.135.47-.091.1-.251.147-.481.147h-2.364c-.213 0-.369-.048-.467-.148-.099-.098-.147-.254-.147-.47V9.9c0-1.122-.502-1.683-1.502-1.683-.919 0-1.821.221-2.71.667v8.96c0 .215-.045.371-.134.47-.092.1-.251.147-.48.147h-2.365c-.212 0-.37-.048-.467-.148-.097-.098-.147-.254-.147-.47V6.435c0-.232.05-.392.147-.482.098-.091.255-.135.467-.135h1.774c.378 0 .606.181.689.544l.197.667zm-9.917-.593c0-.232.05-.393.147-.482.1-.092.255-.138.469-.138h2.363c.23 0 .39.046.48.138.09.09.136.25.136.482v11.407c0 .215-.045.373-.137.471-.089.099-.249.149-.479.149h-2.363c-.214 0-.37-.05-.469-.149-.098-.098-.147-.256-.147-.47V6.434zm1.797-2.575c-.625 0-1.125-.172-1.503-.518-.377-.349-.564-.818-.564-1.412 0-.595.187-1.064.564-1.41.378-.346.878-.52 1.503-.52.624 0 1.124.174 1.502.52.377.346.566.815.566 1.41 0 .594-.189 1.063-.566 1.412-.378.346-.878.519-1.502.519zm-8.238 3.836c.655-.725 1.276-1.24 1.859-1.547a3.957 3.957 0 0 1 1.859-.457h.344c.23 0 .394.046.492.136.1.092.147.252.147.482v2.079c0 .215-.043.371-.135.471-.089.098-.249.148-.479.148a4.89 4.89 0 0 1-.444-.025 7.744 7.744 0 0 0-.689-.025c-.378 0-.836.055-1.38.16-.541.11-1 .245-1.377.41v8.314c0 .215-.046.372-.135.472-.091.098-.251.148-.481.148h-2.364c-.213 0-.369-.05-.467-.148-.099-.1-.149-.257-.149-.472V6.435c0-.232.05-.392.15-.484.097-.09.253-.136.466-.136h1.772c.378 0 .608.182.691.545l.32 1.336zM.025 6.434c0-.23.05-.39.15-.482.097-.092.252-.136.466-.136h1.774c.378 0 .606.182.689.545l.172.642A5.47 5.47 0 0 1 5.06 5.864a5.687 5.687 0 0 1 2.131-.419c1.591 0 2.85.586 3.778 1.756.928 1.172 1.393 2.755 1.393 4.753 0 1.368-.23 2.565-.69 3.587-.46 1.024-1.084 1.812-1.87 2.363-.79.555-1.692.83-2.71.83a5.705 5.705 0 0 1-1.92-.321 4.626 4.626 0 0 1-1.552-.89v5.418c0 .231-.045.392-.135.483-.09.09-.25.136-.48.136H.64c-.214 0-.37-.046-.467-.136-.1-.091-.15-.252-.15-.483V6.434zm6.008 1.733c-.852 0-1.657.223-2.413.667v6.509a4.5 4.5 0 0 0 2.413.67c.92 0 1.596-.313 2.032-.94.435-.629.653-1.617.653-2.97 0-1.37-.214-2.368-.641-2.996-.427-.627-1.108-.94-2.044-.94z"></path></g></svg><svg width="34" height="34" viewBox="-5 -5 34 34" id="overflow" y="1485"><g fill="none" fill-rule="evenodd"><path d="M11 5c0 .557.444 1 1 1 .557 0 1-.444 1-1 0-.557-.444-1-1-1-.557 0-1 .444-1 1zm0 7c0 .557.444 1 1 1 .557 0 1-.444 1-1 0-.557-.444-1-1-1-.557 0-1 .444-1 1zm0 7c0 .557.444 1 1 1 .557 0 1-.444 1-1 0-.557-.444-1-1-1-.557 0-1 .444-1 1z" stroke="#F2F4F6" stroke-width="2"></path><path d="M0 0h24v24H0z"></path></g></svg><svg width="32" height="32" viewBox="-5 -5 32 32" id="phone" y="1519"><path d="M17.098 14.166a1.224 1.224 0 0 0-.512-.024c-.376.05-.817.218-1.275.47a5.996 5.996 0 0 0-.816.535 1.175 1.175 0 0 1-1.524-.106L6.94 9.034a1.243 1.243 0 0 1-.25-1.373l1.028-2.316c.062-.14.016-.447-.083-.56l-3.04-3.458a.98.98 0 0 0-1.361-.095L2.336 2C1.07 3.084.62 5.246 1.352 6.739l.05.125c.024.071.09.243.213.509.213.465.505 1.011.887 1.632 1.107 1.802 2.711 3.823 4.903 6.012 2.17 2.167 4.388 3.737 6.532 4.806a16.6 16.6 0 0 0 2.019.856c.347.119.583.184.692.208l.11.031c.64.224 1.674-.028 2.174-.527l1.794-1.791a.916.916 0 0 0-.014-1.318 38.496 38.496 0 0 0-1.887-1.772 25.148 25.148 0 0 0-.57-.486c-.446-.367-.839-.66-1.157-.858z" stroke="#879596" stroke-width="2" fill="none"></path></svg><svg width="34" height="34" viewBox="-5 -5 34 34" id="pinterest" y="1551"><path d="M12 1C5.927 1 1 5.924 1 12c0 4.505 2.709 8.374 6.585 10.075-.03-.768-.006-1.69.191-2.526.212-.892 1.416-5.994 1.416-5.994s-.352-.702-.352-1.74c0-1.63.945-2.848 2.121-2.848 1.001 0 1.484.752 1.484 1.652 0 1.006-.641 2.51-.971 3.904-.275 1.166.585 2.117 1.736 2.117 2.084 0 3.488-2.676 3.488-5.847 0-2.411-1.623-4.216-4.577-4.216-3.337 0-5.416 2.489-5.416 5.268 0 .959.284 1.634.725 2.158.204.24.232.337.159.613-.053.202-.174.689-.225.882-.073.279-.298.379-.55.276-1.537-.627-2.253-2.31-2.253-4.203 0-3.125 2.636-6.871 7.862-6.871 4.2 0 6.964 3.04 6.964 6.3 0 4.316-2.4 7.54-5.935 7.54-1.188 0-2.305-.641-2.688-1.37 0 0-.639 2.533-.773 3.022-.234.85-.69 1.696-1.108 2.357.99.292 2.034.451 3.118.451C18.075 23 23 18.076 23 12S18.075 1 12 1" fill="#F2F4F6" fill-rule="evenodd"></path></svg><svg width="34" height="34" viewBox="-5 -5 34 34" id="play-arrow" y="1585"><path d="M4.576 2.452C3.71 1.953 3 2.364 3 3.364v17.272c0 1 .71 1.41 1.576.912l15.03-8.642c.867-.498.867-1.314 0-1.812L4.576 2.452z" fill="#FFF" fill-rule="evenodd"></path></svg><svg width="82" height="82" preserveAspectRatio="none slice" viewBox="-5 -5 82 82" id="play-button-arrow" y="1619"><path d="M36 0c19.883 0 36 16.117 36 36S55.883 72 36 72 0 55.883 0 36 16.117 0 36 0z" fill="none"></path><path d="M30.79 45.776c-.989.502-1.79.02-1.79-1.1V27.339c0-1.11.797-1.603 1.79-1.099l17.415 8.858c.989.503.993 1.316 0 1.821L30.79 45.776z" fill="#FFF" opacity=".95"></path></svg><svg width="55" height="55" viewBox="-5 -5 55 55" id="prime-sash" y="1701"><g fill="none" fill-rule="evenodd"><path fill="#EDECEC" fill-rule="nonzero" d="M0 45V19L19.432 0H45z"></path><path fill="#FEFEFE" fill-rule="nonzero" d="M0 44V20L20.442 0H44z"></path><path d="M4.117 23.816l-1.029 1.029c-.053.053-.222.18-.17.314l1.403 6.012-2.358-.278a.218.218 0 0 0-.196.059L.63 32.089a.216.216 0 0 0 .124.366l5.371.586a.215.215 0 0 0 .181-.063.016.016 0 0 0 .008-.006.22.22 0 0 0 .052-.193L4.48 24.036c-.033-.205-.144-.261-.236-.261a.196.196 0 0 0-.127.041z" fill="#EB912A"></path><path d="M12.502 15.449c-.066.003-.138.044-.218.124l-.119.119c-.225.224-.391.5-.486.802-.096.307-.134.698-.111 1.176l-.571-.349c-.154-.097-.295-.08-.425.051l-.615.614c-.073.074-.113.143-.115.209-.002.066.036.139.115.217l3.931 3.931c.074.074.145.111.213.112.069 0 .14-.038.213-.112l.819-.818c.079-.08.118-.152.115-.218-.004-.066-.042-.135-.115-.21l-2.865-2.864c.075-.187.185-.393.336-.618a3.52 3.52 0 0 1 .669-.764c.069-.056.123-.104.163-.144.079-.08.117-.152.114-.218-.002-.064-.041-.134-.115-.208l-.715-.717c-.078-.076-.149-.115-.212-.115h-.006zm-.032-3.624l.04-.001c.233 0 .447.096.641.291.205.204.301.432.291.682-.013.249-.126.482-.342.698-.216.216-.45.331-.699.342-.25.011-.478-.085-.682-.29-.205-.204-.302-.432-.29-.682.01-.251.124-.483.34-.699.216-.216.449-.33.701-.341zm1.712 1.935c.08-.079.151-.119.213-.119.064 0 .135.04.214.119l3.93 3.931c.075.074.113.143.115.209.004.065-.035.138-.115.218l-.818.818c-.074.074-.145.11-.213.11-.069 0-.139-.036-.213-.11l-3.931-3.931c-.08-.08-.118-.152-.115-.216.003-.066.041-.136.115-.21l.818-.819zm7.778-7.377c-.436 0-.853.197-1.248.592-.273.273-.494.58-.665.921a4.863 4.863 0 0 0-.4 1.236c-.574-.153-1.117.025-1.63.537a3.285 3.285 0 0 0-.622.87c-.158.324-.29.736-.392 1.236l-.299-.162c-.153-.096-.294-.079-.426.052l-.613.614c-.074.073-.113.143-.116.208-.002.066.036.138.116.218l3.93 3.93c.075.074.146.111.213.111.068 0 .14-.037.213-.111l.819-.818c.08-.08.117-.152.115-.218-.004-.064-.042-.135-.115-.208l-3.087-3.087c.154-.46.39-.85.708-1.168.347-.346.714-.326 1.101.06l2.736 2.737c.074.073.144.11.213.11.068 0 .139-.037.213-.11l.818-.819c.08-.079.119-.152.116-.217-.003-.066-.041-.135-.116-.209l-3.008-3.011-.086-.084c.165-.461.401-.844.708-1.152.346-.346.713-.326 1.099.06l2.737 2.737c.075.074.145.112.213.111.068.001.14-.037.213-.111l.819-.818c.08-.08.118-.152.115-.218-.004-.065-.041-.135-.115-.209l-3.01-3.009c-.398-.398-.817-.599-1.258-.601h-.009zm4.537-4.426c.05-.003.1-.005.148-.005.496 0 .936.193 1.323.58.426.428.588.91.486 1.45-.102.54-.466 1.123-1.092 1.748a4.73 4.73 0 0 1-.937.751c.415.346.803.504 1.164.473.361-.031.739-.246 1.137-.644.16-.159.305-.324.436-.494a8.08 8.08 0 0 0 .532-.823c.014-.02.028-.036.038-.048.098-.096.211-.079.342.052l.392.392c.091.092.142.167.154.23a.448.448 0 0 1-.051.248 5.196 5.196 0 0 1-1.083 1.56c-.706.705-1.439 1.053-2.205 1.044-.764-.009-1.508-.374-2.229-1.095-.738-.74-1.125-1.512-1.16-2.319-.034-.807.293-1.555.98-2.243.53-.528 1.071-.814 1.625-.857zm-.857 1.812c-.546.546-.525 1.197.06 1.952a5.37 5.37 0 0 0 .827-.69c.29-.29.457-.544.499-.763.042-.219-.028-.42-.209-.601-.359-.359-.751-.324-1.177.102zM6.991 20.697c.48-.481 1.025-.721 1.637-.721.09 0 .183.006.277.016.724.084 1.432.468 2.119 1.157.472.471.805.963.997 1.474.194.512.249.999.167 1.463a2.26 2.26 0 0 1-.653 1.224 2.807 2.807 0 0 1-.776.553c-.264.13-.55.21-.844.231l1.868 1.867c.079.079.118.15.119.212-.001.063-.04.134-.119.214l-.818.819c-.075.073-.144.112-.211.115-.065.002-.137-.035-.217-.115L4.85 23.519c-.078-.08-.117-.153-.115-.218.003-.065.041-.135.115-.208l.615-.615c.13-.13.273-.148.426-.05l.282.162c.005-.336.079-.673.224-1.011.14-.33.341-.629.594-.882zM6.923 23.1l2.243 2.243a2.212 2.212 0 0 0 1.065-.606c.318-.318.445-.66.379-1.027-.066-.366-.331-.783-.796-1.249-.472-.472-.891-.742-1.255-.809-.364-.069-.707.059-1.031.383a2.292 2.292 0 0 0-.605 1.065z" fill="#2B88AE"></path></g></svg><svg width="34" height="34" viewBox="-5 -5 34 34" id="profile" y="1756"><g transform="translate(5 3)" stroke="#F2F4F6" stroke-width="2" fill="none" fill-rule="evenodd" opacity=".7"><circle cx="7" cy="4" r="4"></circle><path d="M12.978 18l-.001-3.6c0-3.535-2.681-6.4-5.989-6.4C3.681 8 1 10.865 1 14.4L.978 18" stroke-linecap="round"></path></g></svg><svg width="34" height="34" viewBox="-5 -5 34 34" id="search" y="1790"><g fill="#EFF1F1" fill-rule="evenodd" opacity=".7"><path d="M18 10a8 8 0 1 0-16 0 8 8 0 0 0 16 0zM4 10a6 6 0 1 1 12 0 6 6 0 0 1-12 0z" fill-rule="nonzero"></path><path d="M19.293 21.707a1 1 0 0 0 1.414-1.414l-5-5a1 1 0 0 0-1.414 1.414l5 5z"></path></g></svg><svg width="28" height="28" viewBox="-5 -5 28 28" id="search-clear-button" y="1824"><path d="M9.09 10.414l-3.168 3.168-.707.707-1.414-1.414.707-.707L7.676 9 4.558 5.882l-.707-.707 1.414-1.414.707.707L9.09 7.586l3.028-3.028.707-.707 1.414 1.414-.707.707L10.504 9l3.078 3.078.707.707-1.414 1.414-.707-.707-3.078-3.078zM9 18A9 9 0 1 0 9 0a9 9 0 0 0 0 18z" fill="#7F7F7F" fill-rule="evenodd" fill-opacity=".6"></path></svg><svg width="27" height="27" viewBox="-5 -5 27 27" id="second-screen-close" y="1852"><path d="M1.497 1.328l14.269 14.268m-.094-14.099L1.404 15.766" stroke="#ABABAB" stroke-width="2" fill="none"></path></svg><svg width="34" height="34" viewBox="-5 -5 34 34" id="share" y="1879"><path d="M6 15a3 3 0 1 0 0-6 3 3 0 0 0 0 6zm12-6a3 3 0 1 0 0-6 3 3 0 0 0 0 6zm0 12a3 3 0 1 0 0-6 3 3 0 0 0 0 6zm-3-4l-7-3m7-7l-7 3" stroke="#FFF" stroke-width="2" fill="none"></path></svg><svg width="90" height="29" viewBox="-5 -5 90 29" id="smile" y="1913"><g fill="#425265" fill-rule="evenodd"><path d="M0 1.236A.673.673 0 0 1 .68.65c.17 0 .364.056.567.183 11.295 7.083 25.267 11.35 39.697 11.35 9.737 0 20.436-2.178 30.282-6.68 1.484-.676 2.727 1.053 1.275 2.215-8.783 6.982-21.516 10.698-32.48 10.698-15.366 0-29.202-6.124-39.677-16.315A1.107 1.107 0 0 1 0 1.477v-.24z"></path><path d="M65.222 2.615C67.819.655 71.272 0 74.135 0c2.678 0 4.84.573 5.301 1.186.968 1.28-.249 10.147-4.963 14.376-.72.655-1.407.302-1.089-.552 1.06-2.837 3.432-9.205 2.308-10.75-1.123-1.547-7.426-.737-10.253-.372-.438.056-.687-.123-.724-.39v-.145c.03-.231.194-.501.507-.738z"></path></g></svg><svg width="34" height="34" viewBox="-5 -5 34 34" id="start-over" y="1942"><defs><path id="a" d="M0 0h17.719v18.538H0z"></path></defs><g transform="translate(3 3)" fill="none" fill-rule="evenodd"><mask id="b" fill="#fff"><use xlink:href="#a"></use></mask><path d="M14.093 2.319C10.8-.134 6.37.014 3.257 2.39l.028-1.37a1 1 0 1 0-2-.042l-.08 3.895a.997.997 0 0 0 .978 1.02l3.895.08a.997.997 0 0 0 1.02-.978 1 1 0 0 0-.98-1.02l-1.603-.033c2.419-1.815 5.839-1.916 8.384-.02a6.956 6.956 0 0 1 2.745 4.6 6.956 6.956 0 0 1-1.313 5.195 6.954 6.954 0 0 1-4.6 2.745 6.962 6.962 0 0 1-5.195-1.312 6.932 6.932 0 0 1-2.57-3.79 1 1 0 0 0-1.931.52 8.9 8.9 0 0 0 3.307 4.874 8.946 8.946 0 0 0 6.678 1.687 8.934 8.934 0 0 0 5.915-3.53 8.943 8.943 0 0 0 1.688-6.678 8.943 8.943 0 0 0-3.53-5.915" fill="#FFF" mask="url(#b)"></path></g></svg><svg width="30" height="32" viewBox="-5 -5 30 32" id="subtitles" y="1976"><g fill="none" fill-rule="evenodd" vector-effect="non-scaling-stroke"><path d="M3.5 20.793L5.793 18.5H18a1.5 1.5 0 0 0 1.5-1.5V6A1.5 1.5 0 0 0 18 4.5H2A1.5 1.5 0 0 0 .5 6v11A1.5 1.5 0 0 0 2 18.5h1.5v2.293z" stroke="#8197A4" fill-opacity=".1" fill-rule="nonzero"></path><path d="M4 13.5h12m-10 2h8" stroke="#8197A4" stroke-linecap="round"></path></g></svg><svg width="34" height="30" viewBox="-5 -5 34 30" id="subtitles-bento" y="2008"><g fill="none" fill-rule="evenodd" stroke="#8197A4"><path d="M3.5 19l3.333-2.5H22a1.5 1.5 0 0 0 1.5-1.5V2A1.5 1.5 0 0 0 22 .5H2A1.5 1.5 0 0 0 .5 2v13A1.5 1.5 0 0 0 2 16.5h1.5V19z" fill-opacity=".3" fill="#111"></path><path d="M5 9.5h14m-12 3h10" stroke-linecap="round"></path></g></svg><svg width="34" height="34" viewBox="-5 -5 34 34" id="tick" y="2038"><path stroke="#F2F4F6" stroke-width="2" d="M3 11.143L9.3 18 21 6" fill="none" stroke-linecap="round" stroke-linejoin="round"></path></svg><svg width="27" height="20" viewBox="-5 -5 27 20" id="toggle-collpase" y="2072"><g transform="rotate(90 9 9)" fill="#8B8B8B" fill-rule="evenodd" vector-effect="non-scaling-stroke"><rect transform="rotate(45 5 13.468)" x="-1" y="12.663" width="12" height="1.611" rx=".805"></rect><rect transform="rotate(-45 5.235 5.618)" x="-.775" y="4.813" width="12.021" height="1.611" rx=".805"></rect></g></svg><svg width="27" height="20" viewBox="-5 -5 27 20" id="toggle-expand" y="2092"><g transform="matrix(0 -1 -1 0 18 10)" fill="#8B8B8B" fill-rule="evenodd" vector-effect="non-scaling-stroke"><rect transform="rotate(45 5 13.468)" x="-1" y="12.663" width="12" height="1.611" rx=".805"></rect><rect transform="rotate(-45 5.235 5.618)" x="-.775" y="4.813" width="12.021" height="1.611" rx=".805"></rect></g></svg><svg width="34" height="34" viewBox="-5 -5 34 34" id="trailer" y="2112"><path d="M4.078 3.319c-.2-.116-.078-.186-.078.045v17.272c0 .231-.123.16.078.045l15.03-8.641c.197-.115.197.034 0-.08L4.077 3.32z" stroke="#F2F4F6" stroke-width="2" fill="none"></path></svg><svg width="34" height="34" viewBox="-5 -5 34 34" id="twitter" y="2146"><path d="M23 5.105c-.81.355-1.68.596-2.592.705a4.491 4.491 0 0 0 1.984-2.481 8.997 8.997 0 0 1-2.865 1.086A4.531 4.531 0 0 0 16.234 3c-2.492 0-4.512 2.009-4.512 4.486 0 .35.038.693.116 1.02a12.837 12.837 0 0 1-9.3-4.684 4.448 4.448 0 0 0-.611 2.255c0 1.555.593 2.927 1.805 3.731-.74-.024-1.291-.225-2.247-.559v.056c0 2.172 1.758 3.984 3.822 4.396a3.945 3.945 0 0 1-1.886.076c.575 1.781 2.266 3.08 4.241 3.116a9.043 9.043 0 0 1-5.591 1.92c-.363 0-.717-.022-1.071-.064a12.842 12.842 0 0 0 6.921 2.015c8.298 0 12.839-6.833 12.839-12.76 0-.193-.003-.386-.013-.58A9.115 9.115 0 0 0 23 5.104" fill="#F2F4F6" fill-rule="evenodd"></path></svg><svg width="34" height="34" viewBox="-5 -5 34 34" id="watchlist-on" y="2180"><g fill="none" fill-rule="evenodd" stroke-linecap="round" stroke="#FFF" stroke-width="2"><path stroke-linejoin="round" d="M10 5H4v16h16v-9"></path><path d="M8 17h8m-8-4h8M8 9h3"></path><path stroke-linejoin="round" d="M14 6.286L16.25 9 22 3"></path></g></svg></svg>
